<?xml version="1.0" encoding="UTF-8"?>
<svg className="animated" version="1.1" viewBox="0 0 750 500" xmlns="http://www.w3.org/2000/svg">
<style>svg#freepik_stories-firmware:not(.animated) .animable {opacity: 0;}svg#freepik_stories-firmware.animated #freepik--background-complete--inject-18 {animation: 1.5s Infinite  linear heartbeat;animation-delay: 0s;}svg#freepik_stories-firmware.animated #freepik--Floor--inject-18 {animation: 1s 1 forwards cubic-bezier(.36,-0.01,.5,1.38) slideRight;animation-delay: 0s;}svg#freepik_stories-firmware.animated #freepik--Device--inject-18 {animation: 1s 1 forwards cubic-bezier(.36,-0.01,.5,1.38) zoomIn;animation-delay: 0s;}svg#freepik_stories-firmware.animated #freepik--Plant--inject-18 {animation: 1.5s Infinite  linear wind;animation-delay: 0s;}            @keyframes heartbeat {                0% {                    transform: scale(1);                }                10% {                    transform: scale(1.1);                }                30% {                    transform: scale(1);                }                40% {                    transform: scale(1);                }                50% {                    transform: scale(1.1);                }                60% {                    transform: scale(1);                }                100% {                    transform: scale(1);                }            }                    @keyframes slideRight {                0% {                    opacity: 0;                    transform: translateX(30px);                }                100% {                    opacity: 1;                    transform: translateX(0);                }            }                    @keyframes zoomIn {                0% {                    opacity: 0;                    transform: scale(0.5);                }                100% {                    opacity: 1;                    transform: scale(1);                }            }                    @keyframes wind {                0% {                    transform: rotate( 0deg );                }                25% {                    transform: rotate( 1deg );                }                75% {                    transform: rotate( -1deg );                }            }</style>
<g style="transform-origin:397.154px 244.38px" className="animable">
<path d="M654.62,445.85c-15.55-10.86-19.08-31-18.47-49.16.1-3-.23-6.22,1.21-8.87s4.8-4.47,7.51-3.2c2.25,1.06,3.23,3.68,4.48,5.84a17.88,17.88,0,0,0,7.1,6.78c1.93,1,4.31,1.61,6.21.56,2.61-1.44,2.92-5.05,2.9-8.06q0-8.42-.1-16.83a27.92,27.92,0,0,1,.91-8.94c.93-2.85,3-5.51,5.86-6.31s6.41.85,7,3.8a29.22,29.22,0,0,1,.09,3.75c.08,1.24.66,2.63,1.85,3s2.41-.5,3.31-1.38c3.1-3,5.21-6.95,7.18-10.84s3.88-7.88,6.7-11.2,6.72-5.94,11-6.18,8.9,2.41,10,6.65-1.38,8.54-4.08,12a66.94,66.94,0,0,1-14,13.33,5.52,5.52,0,0,0-2.34,2.52c-.66,2,1.24,4,3.23,4.66,2.24.74,4.67.51,7,.79s4.89,1.31,5.78,3.53c1.23,3.07-1.34,6.3-3.87,8.41a57.47,57.47,0,0,1-17,9.83c-2.21.81-4.54,1.52-6.33,3.08s-2.86,4.26-1.78,6.38,3.85,2.8,6.17,2.37,4.39-1.69,6.6-2.52c4.14-1.56,9.48-1.28,12.13,2.29a9.55,9.55,0,0,1,1,8.43,22.12,22.12,0,0,1-4.56,7.44,58,58,0,0,1-24.71,17.36c-9.6,3.33-18.49,4.23-28,.74" fill="#f5f5f5" style="transform-origin:677.856px 393.359px" className="animable"/>
<path d="M654.38,459.29a132,132,0,0,1,4.92-24.8,269.94,269.94,0,0,1,10.7-29l3.2-7.47c1-2.44,2.1-4.87,3.27-7.18A133.35,133.35,0,0,1,684,377.9c2.58-4,5.18-7.68,7.62-11.11s4.81-6.58,7.08-9.36a106,106,0,0,1,11.65-12.32c1.49-1.34,2.67-2.35,3.49-3l.92-.75a2.5,2.5,0,0,1,.33-.24s-.09.1-.29.28l-.89.8c-.79.7-2,1.73-3.41,3.09A112.16,112.16,0,0,0,699,357.68c-2.24,2.79-4.57,5.95-7,9.38s-5,7.14-7.57,11.12A136.13,136.13,0,0,0,677,391c-1.16,2.31-2.19,4.71-3.25,7.17l-3.19,7.46a276.22,276.22,0,0,0-10.73,29,134.48,134.48,0,0,0-5,24.7" fill="#e0e0e0" style="transform-origin:684.735px 400.225px" className="animable"/>
<path d="M676.63,390.78a6.4,6.4,0,0,1-.3-1.29c-.15-.83-.34-2-.55-3.54-.43-3-.88-7.16-1.35-11.74s-1-8.73-1.45-11.71c-.23-1.49-.43-2.7-.58-3.53a7.17,7.17,0,0,1-.17-1.31,5.8,5.8,0,0,1,.38,1.26c.22.82.47,2,.75,3.51.58,3,1.14,7.13,1.62,11.72s.87,8.62,1.18,11.75c.16,1.41.28,2.6.39,3.56A5.7,5.7,0,0,1,676.63,390.78Z" fill="#e0e0e0" style="transform-origin:674.434px 374.22px" className="animable"/>
<path d="M715.32,383.54a7.47,7.47,0,0,1-1.54.19c-1,.09-2.43.21-4.2.41-3.54.38-8.42,1.08-13.77,2.09s-10.15,2.15-13.59,3.06c-1.73.45-3.12.85-4.08,1.11a9.06,9.06,0,0,1-1.51.38,7.24,7.24,0,0,1,1.44-.58c.95-.34,2.32-.79,4-1.29,3.43-1,8.24-2.21,13.6-3.23a135.75,135.75,0,0,1,13.83-1.93c1.78-.16,3.23-.22,4.23-.24A8.88,8.88,0,0,1,715.32,383.54Z" fill="#e0e0e0" style="transform-origin:695.975px 387.134px" className="animable"/>
<path d="M659.77,433.77a2,2,0,0,1-.26-.47l-.66-1.4c-.57-1.21-1.35-3-2.28-5.22-1.87-4.43-4.26-10.63-6.8-17.52s-4.86-13.1-6.64-17.56c-.86-2.17-1.58-4-2.11-5.29-.23-.57-.41-1.05-.57-1.44a1.93,1.93,0,0,1-.16-.52,2.26,2.26,0,0,1,.27.48c.17.37.39.84.66,1.4.57,1.21,1.34,3,2.28,5.21,1.86,4.44,4.25,10.64,6.79,17.53s4.87,13.1,6.64,17.56c.87,2.17,1.58,4,2.11,5.29q.35.85.57,1.44A2.06,2.06,0,0,1,659.77,433.77Z" fill="#e0e0e0" style="transform-origin:650.03px 409.06px" className="animable"/>
<path d="M711.19,417.2a1.9,1.9,0,0,1-.51.21l-1.49.5-5.51,1.79c-4.65,1.51-11,3.66-18.11,6.05s-13.49,4.5-18.17,5.91c-2.34.71-4.24,1.26-5.56,1.61l-1.53.4a1.68,1.68,0,0,1-.54.1,2.81,2.81,0,0,1,.51-.21l1.5-.5,5.5-1.78c4.65-1.51,11.05-3.66,18.12-6.06s13.49-4.49,18.17-5.9c2.34-.71,4.24-1.26,5.56-1.62l1.52-.4A2.2,2.2,0,0,1,711.19,417.2Z" fill="#e0e0e0" style="transform-origin:685.48px 425.485px" className="animable"/>
<path d="M687,215.55a30.82,30.82,0,0,1-5.61,5.9l1.46,7.39-11.4,5.06-4.51-6a30.68,30.68,0,0,1-8.13.2l-4.2,6.26L643,229.84l1.09-7.46a30.53,30.53,0,0,1-5.9-5.61l-7.4,1.46-5.06-11.41,6.05-4.51a30.68,30.68,0,0,1-.2-8.13l-6.26-4.2,4.48-11.64,7.46,1.09a30.48,30.48,0,0,1,5.61-5.89l-1.46-7.4,11.41-5.06,4.51,6a30.26,30.26,0,0,1,8.13-.21l4.2-6.26,11.64,4.49-1.09,7.46a30.18,30.18,0,0,1,5.89,5.61l7.4-1.46,5.06,11.4-6,4.51a30.26,30.26,0,0,1,.21,8.13l6.26,4.2-4.49,11.64L687,215.55Zm-12.6-12.72a13.38,13.38,0,1,0-17.3,7.68A13.38,13.38,0,0,0,674.38,202.83Z" fill="none" style="transform-origin:662.175px 197.485px" className="animable"/>
<path d="M674.38,202.83a10.07,10.07,0,0,1-1.44,3,13.34,13.34,0,0,1-7.24,5.3,13.5,13.5,0,0,1-6.29.37,13.72,13.72,0,0,1-6.52-3.11,12.89,12.89,0,0,1-2.59-3,12.63,12.63,0,0,1-1.67-3.76,13.64,13.64,0,0,1,5.85-15.19,13.73,13.73,0,0,1,7.69-2.15,13.71,13.71,0,0,1,6.93,2.08,13.46,13.46,0,0,1,4.41,4.49,13.32,13.32,0,0,1,1.81,8.79,10.19,10.19,0,0,1-.94,3.18,30.28,30.28,0,0,0,.64-3.21,13.34,13.34,0,0,0-2-8.47,13.08,13.08,0,0,0-4.29-4.24,13.25,13.25,0,0,0-6.61-1.91,12.17,12.17,0,0,0-3.71.48,12.34,12.34,0,0,0-3.56,1.6,13,13,0,0,0-5.53,14.35,12.72,12.72,0,0,0,1.57,3.57,12.37,12.37,0,0,0,2.43,2.84,13.1,13.1,0,0,0,12.2,2.76,13.43,13.43,0,0,0,7.15-4.95A30,30,0,0,0,674.38,202.83Z" fill="#e0e0e0" style="transform-origin:661.79px 197.998px" className="animable"/>
<path d="M687,215.55a4.12,4.12,0,0,1,.47,0l1.42.18,5.59.75-.13.08,4.42-11.67.07.23L692.54,201l-.11-.08v-.13a30.24,30.24,0,0,0-.23-8.07l0-.15.12-.09,6-4.53-.09.33-5.08-11.39.33.17-7.4,1.48-.18,0-.12-.15a30.42,30.42,0,0,0-5.84-5.55l-.17-.11,0-.2c.34-2.31.71-4.87,1.08-7.46l.22.37L669.48,161l.42-.13-4.19,6.26-.12.19-.22,0a30.69,30.69,0,0,0-8,.21l-.23,0-.13-.18-4.51-6,.45.12-11.4,5.06.22-.42,1.46,7.4,0,.23-.19.15a29.77,29.77,0,0,0-5.53,5.81h0l-.37.16h-.11l-.12,0-.23,0-.47-.07-.94-.14-1.87-.27-3.72-.54.41-.24q-2.28,5.9-4.49,11.64l-.14-.45,6.26,4.2.19.12,0,.23a30.35,30.35,0,0,0,.2,8l0,.23-.19.13-6.05,4.5.12-.44q2.58,5.85,5.05,11.41l-.39-.2,7.4-1.45.2,0,.13.16a30.25,30.25,0,0,0,5.82,5.56l.16.12,0,.19c-.37,2.56-.74,5-1.1,7.46l-.2-.34,11.63,4.51-.34.11,4.21-6.25.09-.14.17,0a30.72,30.72,0,0,0,8.06-.18l.15,0,.09.13,4.49,6.06-.27-.07,11.42-5-.1.19c-.56-3-1-5.39-1.41-7.41v-.08l.06,0a32.71,32.71,0,0,0,4.4-4.24c.41-.51.73-.89,1-1.17a4.06,4.06,0,0,1,.32-.39,3,3,0,0,1-.27.43c-.19.27-.49.68-.92,1.21a29.25,29.25,0,0,1-4.34,4.35l0-.12c.42,2,.91,4.44,1.51,7.39l0,.14-.13.05-11.38,5.11-.17.08-.11-.15-4.52-6,.24.1a31.27,31.27,0,0,1-8.2.23l.26-.12c-1.33,2-2.72,4.06-4.19,6.27l-.13.19-.22-.08-11.65-4.47-.24-.09,0-.25,1.08-7.46.13.32a31,31,0,0,1-6-5.67l.33.12-7.4,1.47-.27.06-.12-.26L625.35,207l-.12-.27.24-.17,6-4.52-.14.36a30.58,30.58,0,0,1-.22-8.23l.17.35-6.27-4.19-.25-.17.11-.28q2.22-5.74,4.49-11.65l.11-.29.3.05,3.72.54,1.87.27.94.14.47.07.23,0,.12,0h.11c-.73.31-.2.08-.37.15h0a30.43,30.43,0,0,1,5.67-6l-.13.37-1.46-7.4-.06-.3.28-.12,11.41-5.06.27-.12.18.24,4.5,6.05-.35-.14a30.91,30.91,0,0,1,8.23-.2l-.34.16,4.2-6.26.16-.24.27.11,11.63,4.5.26.1,0,.27c-.38,2.59-.76,5.14-1.1,7.45l-.13-.31A30.73,30.73,0,0,1,686.3,178l-.31-.11,7.4-1.45.24-.05.1.22,5,11.42.09.2-.17.13-6.07,4.49.1-.24a30.7,30.7,0,0,1,.18,8.2l-.1-.21,6.25,4.22.13.09-.06.14c-1.85,4.73-3.39,8.64-4.55,11.62l0,.09-.09,0-5.53-.87-1.43-.24A2.86,2.86,0,0,1,687,215.55Z" fill="#e0e0e0" style="transform-origin:661.95px 197.52px" className="animable"/>
<path d="M604.64,115.2a43.26,43.26,0,0,1-7.93,8.33L598.78,134l-16.13,7.16-6.37-8.56a42.92,42.92,0,0,1-11.5.29l-5.94,8.86-16.46-6.35,1.54-10.54a43,43,0,0,1-8.33-7.94L525.13,119,518,102.85l8.55-6.37a42.92,42.92,0,0,1-.28-11.5L517.38,79l6.35-16.46,10.54,1.54a43.32,43.32,0,0,1,7.94-8.33l-2.07-10.46,16.13-7.16,6.37,8.56a43.32,43.32,0,0,1,11.5-.29l5.94-8.86,16.46,6.35L595,54.48a43.26,43.26,0,0,1,8.33,7.93l10.46-2.07L621,76.47l-8.56,6.37a43.33,43.33,0,0,1,.29,11.5l8.86,5.94-6.35,16.46-10.55-1.54Zm-17.81-18a18.93,18.93,0,1,0-24.47,10.86A18.92,18.92,0,0,0,586.83,97.21Z" fill="#e0e0e0" fill-rule="evenodd" style="transform-origin:569.485px 89.645px" className="animable"/>
<path d="M686.39,137.93a24,24,0,0,1-4.39,4.61l1.14,5.79-8.93,4-3.52-4.73a24.2,24.2,0,0,1-6.37.16l-3.29,4.9-9.11-3.51.85-5.84a24.33,24.33,0,0,1-4.61-4.39L642.37,140l-4-8.93,4.73-3.53a24.14,24.14,0,0,1-.16-6.36l-4.9-3.29,3.51-9.12,5.84.86a24,24,0,0,1,4.39-4.61l-1.14-5.8,8.93-4,3.53,4.74a23.32,23.32,0,0,1,6.36-.16L672.79,95l9.12,3.52-.86,5.84a23.73,23.73,0,0,1,4.61,4.39l5.8-1.14,4,8.92L690.68,120a23.38,23.38,0,0,1,.16,6.37l4.9,3.28-3.51,9.12-5.84-.85Zm-9.86-10A10.48,10.48,0,1,0,663,134,10.48,10.48,0,0,0,676.53,128Z" fill="#e0e0e0" fill-rule="evenodd" style="transform-origin:666.89px 123.83px" className="animable"/>
<path d="M490,37.66a20.26,20.26,0,0,1,3.88,3.8l4.95-.91,3.27,7.66L498,51.16a20.55,20.55,0,0,1,.06,5.43l4.14,2.85-3.11,7.73-5-.8a20.26,20.26,0,0,1-3.8,3.88l.9,5-7.65,3.27-2.95-4.08a20.55,20.55,0,0,1-5.43.06l-2.86,4.14-7.72-3.11.79-5a20.5,20.5,0,0,1-3.87-3.8l-4.95.9L453.35,60,457.43,57a20.13,20.13,0,0,1-.06-5.43l-4.14-2.86L456.34,41l5,.79a20.2,20.2,0,0,1,3.8-3.87l-.91-5,7.66-3.27,2.95,4.08a20.13,20.13,0,0,1,5.43-.06l2.86-4.14,7.72,3.1-.8,5Zm-8.6,8.28a8.93,8.93,0,1,0,5,11.62A8.93,8.93,0,0,0,481.41,45.94Z" fill="none" style="transform-origin:477.715px 54.085px" className="animable"/>
<path d="m481.41 45.94a7 7 0 0 1 2 1 9 9 0 0 1 3.47 4.88 9.1 9.1 0 0 1-2 8.53 9.13 9.13 0 0 1-4.54 2.77 9.12 9.12 0 0 1-10.07-4 8.9 8.9 0 0 1-1.08-2.53 8.43 8.43 0 0 1-0.28-2.62 9.14 9.14 0 0 1 1.45-4.61 9 9 0 0 1 8.92-4 6.77 6.77 0 0 1 2.11 0.65 21.71 21.71 0 0 0-2.14-0.45 8.77 8.77 0 0 0-9.87 8.44 8.08 8.08 0 0 0 0.28 2.48 8.4 8.4 0 0 0 1 2.39 8.66 8.66 0 0 0 9.52 3.83 7.9 7.9 0 0 0 2.4-1 8 8 0 0 0 1.97-1.7 8.77 8.77 0 0 0 2-8.11 8.83 8.83 0 0 0-3.24-4.81c-1.17-0.82-1.93-1.08-1.9-1.14z" fill="#e0e0e0" style="transform-origin:478.057px 54.3386px" className="animable"/>
<path d="M490,37.66l0-.31c0-.23.08-.54.14-1,.12-.86.31-2.1.55-3.72l0,.09L483,29.71l.15-.05-2.84,4.15-.05.08h-.09a20.37,20.37,0,0,0-5.39.07l-.1,0-.06-.08c-.92-1.27-1.92-2.65-3-4.07l.22.06-7.65,3.28.12-.22c.29,1.53.6,3.22.92,5l0,.12-.1.08a20.21,20.21,0,0,0-3.75,3.85l-.08.1-.13,0-5-.79.25-.14c-1,2.43-2,5-3.1,7.73l-.08-.29,4.14,2.86.12.08,0,.15a20.54,20.54,0,0,0,.06,5.36l0,.15-.13.09-4.07,3,.08-.3c1,2.42,2.15,5,3.27,7.65l-.28-.15,4.95-.9.15,0,.1.12a20.6,20.6,0,0,0,3.82,3.75h0a2.47,2.47,0,1,0,.1.25h0v.06l0,.08,0,.15,0,.32-.1.62-.2,1.25c-.14.83-.27,1.65-.4,2.47l-.16-.28,7.73,3.11-.31.09q1.45-2.09,2.86-4.14l.09-.12.15,0a20,20,0,0,0,5.36-.06l.15,0,.09.12,2.94,4.08-.29-.08L491.17,75l-.14.26q-.45-2.52-.9-4.95l0-.14.11-.08A20.32,20.32,0,0,0,494,66.24l.08-.11.13,0,5,.81-.24.13c1.1-2.72,2.14-5.28,3.12-7.72l.08.24L498,56.74l-.09-.07,0-.11a20.51,20.51,0,0,0-.05-5.38v-.1l.08-.06L502,48.09l0,.18c-1.26-3-2.32-5.5-3.24-7.67l.13.07-5,.87h0l0,0a20.89,20.89,0,0,0-2.78-3l-.77-.65-.26-.22a1.71,1.71,0,0,1,.28.19c.18.13.45.33.8.62A19.22,19.22,0,0,1,494,41.41l-.08,0,4.95-.94.09,0,0,.09,3.31,7.64,0,.11-.1.07-4.06,3,.07-.16a20.8,20.8,0,0,1,.07,5.48l-.08-.18,4.15,2.85.13.09-.06.15c-1,2.44-2,5-3.09,7.73l-.06.16-.17,0-5-.79.21-.09a20.61,20.61,0,0,1-3.83,3.93l.08-.22c.3,1.62.61,3.27.91,5l0,.18-.17.07-7.66,3.28-.18.08-.11-.16-3-4.08.23.1a20.57,20.57,0,0,1-5.49.07l.24-.11-2.86,4.14-.11.17-.19-.08-7.73-3.1-.19-.08,0-.2c.14-.82.27-1.65.4-2.47l.2-1.25.1-.62.05-.32,0-.15v-.14h0c.2.49.06.13.1.24h0a20.72,20.72,0,0,1-3.92-3.84l.24.09-4.95.9-.2,0-.08-.19-3.26-7.66-.08-.18.16-.12,4.08-2.94-.1.23a20.65,20.65,0,0,1-.05-5.49l.1.23-4.13-2.86-.16-.11.07-.18c1.08-2.68,2.14-5.29,3.11-7.72l.07-.17.18,0,5,.81-.22.08A20.42,20.42,0,0,1,465,37.76l-.08.2c-.31-1.73-.62-3.41-.89-5l0-.16.15-.06,7.66-3.25.13-.06.09.12,2.94,4.09-.16-.07a20.42,20.42,0,0,1,5.46,0l-.14.06L483,29.52l.06-.09.09,0,7.71,3.15.06,0v.07c-.27,1.59-.49,2.82-.63,3.67-.08.41-.13.72-.18.95A1.77,1.77,0,0,1,490,37.66Z" fill="#e0e0e0" style="transform-origin:477.585px 54.25px" className="animable"/>
<rect x="80.15" y="142.21" width="80.42" height="83.83" fill="#e0e0e0" style="transform-origin:120.36px 184.125px" className="animable"/>
<rect x="74.7" y="142.21" width="80.42" height="83.83" fill="#fafafa" style="transform-origin:114.91px 184.125px" className="animable"/>
<path d="M155.15,226.06H74.68V142.18h80.47ZM74.73,226H155.1V142.23H74.73Z" fill="#e0e0e0" style="transform-origin:114.915px 184.12px" className="animable"/>
<rect x="85.51" y="153.48" width="58.8" height="61.29" fill="#fafafa" style="transform-origin:114.91px 184.125px" className="animable"/>
<path d="m85.51 215.18a9.62 9.62 0 0 1-1.45 1.68c-0.94 1-2.25 2.34-3.73 3.79s-2.84 2.76-3.85 3.68a9.78 9.78 0 0 1-1.69 1.42 8.4 8.4 0 0 1 1.44-1.68c0.94-1 2.26-2.34 3.74-3.8s2.85-2.76 3.85-3.68a9.11 9.11 0 0 1 1.69-1.41z" fill="#e0e0e0" style="transform-origin:80.15px 220.465px" className="animable"/>
<path d="M144.31,215a9,9,0,0,1,1.69,1.45c1,.94,2.33,2.26,3.79,3.74s2.75,2.83,3.68,3.84a9.2,9.2,0,0,1,1.41,1.7,9.62,9.62,0,0,1-1.68-1.45c-1-.94-2.33-2.26-3.79-3.74s-2.77-2.85-3.69-3.85A9.81,9.81,0,0,1,144.31,215Z" fill="#e0e0e0" style="transform-origin:149.595px 220.365px" className="animable"/>
<path d="m144.15 153.64a10 10 0 0 1 1.45-1.64c0.94-1 2.26-2.33 3.74-3.79s2.84-2.75 3.84-3.67a9.59 9.59 0 0 1 1.7-1.42 9.23 9.23 0 0 1-1.44 1.68c-0.94 1-2.26 2.34-3.75 3.8s-2.84 2.76-3.85 3.68a8.86 8.86 0 0 1-1.69 1.36z" fill="#e0e0e0" style="transform-origin:149.515px 148.38px" className="animable"/>
<path d="M85.35,153.79a9.62,9.62,0,0,1-1.68-1.45c-1-.94-2.34-2.26-3.79-3.74s-2.76-2.84-3.68-3.84a8.71,8.71,0,0,1-1.41-1.7,10.07,10.07,0,0,1,1.68,1.45c1,.93,2.33,2.26,3.79,3.74S83,151.1,84,152.1A8.52,8.52,0,0,1,85.35,153.79Z" fill="#e0e0e0" style="transform-origin:80.07px 148.425px" className="animable"/>
<path d="m144.15 214.77s0-0.1 0-0.3 0-0.49 0-0.85v-3.31c0-2.91 0-7.13-0.06-12.49 0-10.74-0.07-26-0.11-44.34l0.22 0.22h-58.63l0.27-0.26v61.29l-0.23-0.22 42.46 0.11 11.93 0.06h3.15 0.82-0.77-3.11l-11.88 0.06-42.6 0.11h-0.22v-0.22-61.29-0.26h0.27 58.63 0.23v0.23c0 18.37-0.09 33.71-0.12 44.48 0 5.34 0 9.55-0.06 12.44v3.27 0.83a1.39 1.39 0 0 1-0.19 0.44z" fill="#e0e0e0" style="transform-origin:114.955px 183.965px" className="animable"/>
<rect x="105.1" y="174.31" width="19.62" height="19.62" fill="#ebebeb" style="transform-origin:114.91px 184.12px" className="animable"/>
<rect x="120.72" y="52.52" width="50.62" height="52.76" fill="#e0e0e0" style="transform-origin:146.03px 78.9px" className="animable"/>
<rect x="117.3" y="52.52" width="50.62" height="52.76" fill="#fafafa" style="transform-origin:142.61px 78.9px" className="animable"/>
<path d="M167.93,105.29H117.28V52.5h50.65Zm-50.62,0H167.9V52.53H117.31Z" fill="#e0e0e0" style="transform-origin:142.605px 78.895px" className="animable"/>
<rect x="124.1" y="59.61" width="37.01" height="38.58" fill="#fafafa" style="transform-origin:142.605px 78.9px" className="animable"/>
<path d="M124.1,98.44a5.61,5.61,0,0,1-.91,1.06c-.59.63-1.42,1.47-2.36,2.39s-1.78,1.73-2.41,2.31a6,6,0,0,1-1.07.89,5.88,5.88,0,0,1,.91-1.06c.59-.62,1.42-1.46,2.35-2.38s1.79-1.74,2.43-2.32A6.2,6.2,0,0,1,124.1,98.44Z" fill="#e0e0e0" style="transform-origin:120.725px 101.765px" className="animable"/>
<path d="M161.11,98.35a6,6,0,0,1,1.06.91c.62.59,1.47,1.42,2.38,2.35s1.74,1.79,2.32,2.42a6,6,0,0,1,.89,1.07,6,6,0,0,1-1.06-.91c-.62-.59-1.47-1.42-2.39-2.36S162.57,100,162,99.41A5.3,5.3,0,0,1,161.11,98.35Z" fill="#e0e0e0" style="transform-origin:164.435px 101.725px" className="animable"/>
<path d="M161,59.71a6,6,0,0,1,.91-1.06c.59-.62,1.42-1.47,2.35-2.39s1.79-1.73,2.42-2.31a6,6,0,0,1,1.07-.89,6.46,6.46,0,0,1-.91,1.06c-.59.62-1.42,1.47-2.36,2.39s-1.79,1.73-2.42,2.31A6.05,6.05,0,0,1,161,59.71Z" fill="#e0e0e0" style="transform-origin:164.375px 56.385px" className="animable"/>
<path d="M124,59.81a6.54,6.54,0,0,1-1.06-.92c-.63-.59-1.47-1.42-2.39-2.35s-1.73-1.79-2.31-2.42a5.49,5.49,0,0,1-.89-1.07,6.2,6.2,0,0,1,1.05.91c.63.59,1.47,1.42,2.39,2.36s1.74,1.79,2.32,2.42A6,6,0,0,1,124,59.81Z" fill="#e0e0e0" style="transform-origin:120.675px 56.43px" className="animable"/>
<path d="m161 98.18s0-0.06 0-0.18 0-0.31 0-0.54v-2.08-7.87c0-6.75-0.05-16.38-0.08-27.9l0.15 0.14h-36.91l0.16-0.16v38.57l-0.22-0.16 26.72 0.08h7.51 2-2-7.48l-26.81 0.08h-0.04v-0.15-38.57-0.17h0.16 36.91 0.14v0.15c0 11.56-0.06 21.22-0.07 28v7.83 2 0.52z" fill="#e0e0e0" style="transform-origin:142.605px 78.725px" className="animable"/>
<rect x="136.43" y="72.72" width="12.35" height="12.35" fill="#ebebeb" style="transform-origin:142.605px 78.895px" className="animable"/>
</g>
<g style="transform-origin:386.72px 456.84px" className="animable">
<path d="M713.81,456.84c0,.14-146.45.26-327.08.26s-327.1-.12-327.1-.26,146.42-.26,327.1-.26S713.81,456.69,713.81,456.84Z" fill="#263238" style="transform-origin:386.72px 456.84px" className="animable"/>
</g>
<g style="transform-origin:404.315px 277.39px" className="animable animator-active">
<path d="M606.63,98.69H202a12.64,12.64,0,0,0-12.63,12.63V397.11A12.64,12.64,0,0,0,202,409.74H357.3s9.88,30.55-20.74,46.35h145.2s-34.57-11.85-25.68-46.35H606.63a12.64,12.64,0,0,0,12.63-12.63V111.32A12.64,12.64,0,0,0,606.63,98.69Z" fill="#455a64" style="transform-origin:404.315px 277.39px" className="animable"/>
<path d="m409.72 379.68c5.51 7.87-3.11 16.48-11 11a2.89 2.89 0 0 1-0.67-0.68c-5.49-7.86 3.11-16.46 11-11a2.67 2.67 0 0 1 0.67 0.68z" fill="#263238" style="transform-origin:403.889px 384.845px" className="animable"/>
<rect x="198.51" y="115.82" width="410.77" height="243.65" rx="3.27" fill="#fafafa" style="transform-origin:403.895px 237.645px" className="animable"/>
<path d="M606,360H201.79A3.79,3.79,0,0,1,198,356.2V119.1a3.79,3.79,0,0,1,3.78-3.78H606a3.78,3.78,0,0,1,3.77,3.78V356.2A3.78,3.78,0,0,1,606,360ZM201.79,116.32A2.79,2.79,0,0,0,199,119.1V356.2a2.79,2.79,0,0,0,2.78,2.78H606a2.78,2.78,0,0,0,2.77-2.78V119.1a2.78,2.78,0,0,0-2.77-2.78Z" fill="#fff" style="transform-origin:403.885px 237.66px" className="animable"/>
<path d="m232.2 125.23a3.28 3.28 0 1 1-3.28-3.28 3.28 3.28 0 0 1 3.28 3.28z" fill="#455a64" style="transform-origin:228.92px 125.23px" className="animable"/>
<path d="m212.32 125.23a3.28 3.28 0 1 1-3.32-3.23 3.28 3.28 0 0 1 3.32 3.23z" fill="#455a64" style="transform-origin:209.04px 125.28px" className="animable"/>
<path d="m221.87 125.23a3.29 3.29 0 1 1-3.29-3.28 3.28 3.28 0 0 1 3.29 3.28z" fill="#455a64" style="transform-origin:218.58px 125.24px" className="animable"/>
<path d="M609.58,135.08c0,.15-92.09.26-205.67.26s-205.69-.11-205.69-.26,92.07-.26,205.69-.26S609.58,134.94,609.58,135.08Z" fill="#263238" style="transform-origin:403.9px 135.08px" className="animable"/>
<rect x="277.76" y="295.3" width="121.72" height="24.69" rx="12.34" fill="#fc3" style="transform-origin:338.62px 307.645px" className="animable"/>
<path d="M508.34,320a13,13,0,0,0,5-1.13,12.26,12.26,0,0,0,4.82-3.93A12.23,12.23,0,0,0,510,295.55a23.12,23.12,0,0,0-3.25-.11h-3.4l-31.31,0-181.34.08A12.08,12.08,0,0,0,280.36,314a12.35,12.35,0,0,0,4.53,4.29,12.54,12.54,0,0,0,6,1.45H351.7l81.52.06,55,.08,14.95.05,3.88,0,1.33,0L507,320l-3.88,0-14.95,0-55,.08-81.52.05-48.15,0H290.92a13,13,0,0,1-6.28-1.51,12.81,12.81,0,0,1-4.72-4.47A12.61,12.61,0,0,1,290.65,295l181.34.07,31.31,0h3.4a24,24,0,0,1,3.29.12,12.42,12.42,0,0,1,3.42,23.66,12.63,12.63,0,0,1-3.75,1C508.79,320,508.34,320,508.34,320Z" fill="#263238" style="transform-origin:399.436px 307.566px" className="animable"/>
<path d="m366.94 333.52v-4.45h0.82v4.41c0 1.84 0.86 2.69 2.37 2.69s2.39-0.85 2.39-2.69v-4.41h0.79v4.45c0 2.23-1.19 3.38-3.18 3.38s-3.19-1.15-3.19-3.38z" fill="#263238" style="transform-origin:370.125px 332.985px" className="animable"/>
<path d="m381.87 331.73c0 1.65-1.2 2.65-3.18 2.65h-2.08v2.45h-0.82v-7.76h2.9c1.98 0 3.18 1 3.18 2.66zm-0.83 0c0-1.24-0.82-2-2.37-2h-2.06v3.88h2.06c1.55 0.05 2.33-0.61 2.33-1.88z" fill="#263238" style="transform-origin:378.83px 332.95px" className="animable"/>
<path d="m383.64 329.07h3.16a3.89 3.89 0 1 1 0 7.76h-3.16zm3.12 7.05a3.18 3.18 0 1 0 0-6.34h-2.3v6.34z" fill="#263238" style="transform-origin:387.304px 332.95px" className="animable"/>
<path d="M397.56,334.76h-4.33l-.93,2.07h-.85l3.55-7.76h.81l3.55,7.76h-.87Zm-.3-.67-1.86-4.17-1.87,4.17Z" fill="#263238" style="transform-origin:395.405px 332.95px" className="animable"/>
<path d="M401.76,329.78H399v-.71h6.28v.71h-2.73v7.05h-.82Z" fill="#263238" style="transform-origin:402.14px 332.95px" className="animable"/>
<path d="M412.11,336.12v.71h-5.49v-7.76H412v.71h-4.51v2.76h4v.7h-4v2.88Z" fill="#263238" style="transform-origin:409.365px 332.95px" className="animable"/>
<path d="m416.9 333.79a10 10 0 0 1 1.29-5.19h0.81a11.24 11.24 0 0 0 0 10.4h-0.76a10 10 0 0 1-1.34-5.21z" fill="#fc3" style="transform-origin:417.948px 333.8px" className="animable"/>
<path d="M426.36,334.79H424.8v2H424v-2h-4.38v-.58l4.12-5.14h.89l-4,5H424v-1.8h.77v1.8h1.56Z" fill="#fc3" style="transform-origin:422.99px 332.93px" className="animable"/>
<path d="m427.09 333c0-2.47 1.3-3.95 3.09-3.95s3.11 1.48 3.11 3.95-1.31 3.95-3.11 3.95-3.09-1.53-3.09-3.95zm5.38 0c0-2.07-0.93-3.22-2.29-3.22s-2.28 1.15-2.28 3.22 0.93 3.22 2.28 3.22 2.29-1.22 2.29-3.22z" fill="#fc3" style="transform-origin:430.19px 333px" className="animable"/>
<path d="m434.32 331.12c0-1.27 0.71-2.11 1.75-2.11s1.75 0.83 1.75 2.11-0.72 2.11-1.75 2.11-1.75-0.85-1.75-2.11zm2.95 0c0-1-0.48-1.61-1.2-1.61s-1.2 0.61-1.2 1.61 0.47 1.61 1.2 1.61 1.2-0.6 1.2-1.61zm3.51-2.05h0.65l-5.3 7.76h-0.66zm-1.7 5.71c0-1.26 0.72-2.11 1.75-2.11s1.75 0.85 1.75 2.11-0.71 2.11-1.75 2.11-1.75-0.89-1.75-2.11zm2.95 0c0-1-0.47-1.61-1.2-1.61s-1.2 0.6-1.2 1.61 0.48 1.61 1.2 1.61 1.17-0.61 1.17-1.61z" fill="#fc3" style="transform-origin:438.45px 332.95px" className="animable"/>
<path d="M443.27,339a11.16,11.16,0,0,0,0-10.38H444A11.09,11.09,0,0,1,444,339Z" fill="#fc3" style="transform-origin:444.28px 333.81px" className="animable"/>
<path d="m331.3 165.91v2.5h4.37v1.75h-4.37v3.44h-2.19v-9.44h7.14v1.75z" fill="#263238" style="transform-origin:332.68px 168.88px" className="animable"/>
<path d="m337.73 164.16h2.19v9.44h-2.19z" fill="#263238" style="transform-origin:338.825px 168.88px" className="animable"/>
<path d="m348.17 173.6-1.82-2.6h-2v2.63h-2.18v-9.44h4.08c2.53 0 4.11 1.31 4.11 3.43a3.08 3.08 0 0 1-2 3l2.12 3zm-2.05-7.66h-1.78v3.29h1.78c1.34 0 2-0.62 2-1.64s-0.66-1.65-2-1.65z" fill="#263238" style="transform-origin:346.325px 168.91px" className="animable"/>
<path d="m360.66 173.6v-5.66l-2.78 4.66h-1l-2.77-4.54v5.54h-2.05v-9.44h1.81l3.53 5.87 3.48-5.87h1.8v9.44z" fill="#263238" style="transform-origin:357.37px 168.88px" className="animable"/>
<path d="m379.17 164.16-3.09 9.44h-2.34l-2.08-6.39-2.15 6.39h-2.33l-3.1-9.44h2.26l2.14 6.64 2.22-6.64h2l2.16 6.69 2.2-6.69z" fill="#263238" style="transform-origin:371.625px 168.88px" className="animable"/>
<path d="M386.3,171.58h-4.39l-.84,2h-2.23l4.2-9.44h2.16l4.22,9.44h-2.29Zm-.69-1.66-1.5-3.61-1.5,3.61Z" fill="#263238" style="transform-origin:384.13px 168.86px" className="animable"/>
<path d="m396.43 173.6-1.82-2.6h-2v2.63h-2.19v-9.44h4.09c2.52 0 4.1 1.31 4.1 3.43a3.08 3.08 0 0 1-2 3l2.12 3zm-2.05-7.66h-1.78v3.29h1.78c1.33 0 2-0.62 2-1.64s-0.67-1.65-2-1.65z" fill="#263238" style="transform-origin:394.575px 168.91px" className="animable"/>
<path d="M407.64,171.85v1.75h-7.32v-9.44h7.14v1.75h-5V168h4.38v1.7H402.5v2.19Z" fill="#263238" style="transform-origin:403.98px 168.88px" className="animable"/>
<path d="m421.69 164.16-4.14 9.44h-1.34l-4.15-9.44h1.46l3.4 7.76 3.42-7.76z" fill="#263238" style="transform-origin:416.875px 168.88px" className="animable"/>
<path d="M429.74,172.43v1.17h-6.85v-9.44h6.67v1.17h-5.32v2.9H429v1.15h-4.74v3.05Z" fill="#263238" style="transform-origin:426.315px 168.88px" className="animable"/>
<path d="m438.24 173.6-2-2.9a5.88 5.88 0 0 1-0.6 0h-2.33v2.87h-1.35v-9.44h3.68c2.46 0 3.94 1.24 3.94 3.29a3 3 0 0 1-2.08 3l2.24 3.17zm0-6.15c0-1.35-0.9-2.12-2.63-2.12h-2.29v4.25h2.29c1.69 0 2.59-0.78 2.59-2.13z" fill="#263238" style="transform-origin:435.85px 168.865px" className="animable"/>
<path d="M440.87,172.52l.5-1.05a4.84,4.84,0,0,0,3.12,1.09c1.63,0,2.33-.63,2.33-1.45,0-2.31-5.72-.85-5.72-4.36,0-1.46,1.14-2.7,3.62-2.7a5.54,5.54,0,0,1,3,.84l-.44,1.08a4.88,4.88,0,0,0-2.59-.77c-1.61,0-2.29.67-2.29,1.5,0,2.3,5.71.86,5.71,4.33,0,1.44-1.16,2.68-3.65,2.68A5.64,5.64,0,0,1,440.87,172.52Z" fill="#263238" style="transform-origin:444.49px 168.88px" className="animable"/>
<path d="m450.11 164.16h1.35v9.44h-1.35z" fill="#263238" style="transform-origin:450.785px 168.88px" className="animable"/>
<path d="m453.53 168.88a5 5 0 1 1 5 4.83 4.8 4.8 0 0 1-5-4.83zm8.68 0a3.67 3.67 0 1 0-3.65 3.63 3.54 3.54 0 0 0 3.65-3.63z" fill="#263238" style="transform-origin:458.527px 168.712px" className="animable"/>
<path d="m473.75 164.16v9.44h-1.11l-5.66-7v7h-1.35v-9.44h1.1l5.67 7v-7z" fill="#263238" style="transform-origin:469.69px 168.88px" className="animable"/>
<rect x="374.6" y="203.79" width="58" height="58" fill="#fc3" style="transform-origin:403.6px 232.79px" className="animable"/>
<polygon points="397.95 213.12 397.8 234.82 389.55 234.82 403.98 254.21 417.33 234.89 409.22 234.89 409.44 213.12" fill="#fafafa" style="transform-origin:403.44px 233.665px" className="animable"/>
<rect x="429.54" y="211.5" width="16.84" height="6.09" rx="2.91" fill="#fc3" style="transform-origin:437.96px 214.545px" className="animable"/>
<rect x="429.54" y="223.5" width="16.84" height="6.09" rx="2.91" fill="#fc3" style="transform-origin:437.96px 226.545px" className="animable"/>
<rect x="429.54" y="235.5" width="16.84" height="6.09" rx="2.91" fill="#fc3" style="transform-origin:437.96px 238.545px" className="animable"/>
<rect x="429.54" y="247.51" width="16.84" height="6.09" rx="2.91" fill="#fc3" style="transform-origin:437.96px 250.555px" className="animable"/>
<rect x="362.26" y="211.5" width="16.84" height="6.09" rx="2.91" fill="#fc3" style="transform-origin:370.68px 214.545px" className="animable"/>
<rect x="362.26" y="223.5" width="16.84" height="6.09" rx="2.91" fill="#fc3" style="transform-origin:370.68px 226.545px" className="animable"/>
<rect x="362.26" y="235.5" width="16.84" height="6.09" rx="2.91" fill="#fc3" style="transform-origin:370.68px 238.545px" className="animable"/>
<rect x="362.26" y="247.51" width="16.84" height="6.09" rx="2.91" fill="#fc3" style="transform-origin:370.68px 250.555px" className="animable"/>
<rect x="376.5" y="196.79" width="16.84" height="6.09" rx="2.91" fill="#fc3" style="transform-origin:384.92px 199.835px;transform:rotate(-90deg)" className="animable"/>
<rect x="388.51" y="196.79" width="16.84" height="6.09" rx="2.91" fill="#fc3" style="transform-origin:396.93px 199.835px;transform:rotate(-90deg)" className="animable"/>
<rect x="400.51" y="196.79" width="16.84" height="6.09" rx="2.91" fill="#fc3" style="transform-origin:408.93px 199.835px;transform:rotate(-90deg)" className="animable"/>
<rect x="412.52" y="196.79" width="16.84" height="6.09" rx="2.91" fill="#fc3" style="transform-origin:420.94px 199.835px;transform:rotate(-90deg)" className="animable"/>
<rect x="376.5" y="263.45" width="16.84" height="6.09" rx="2.91" fill="#fc3" style="transform-origin:384.92px 266.495px;transform:rotate(-90deg)" className="animable"/>
<rect x="388.51" y="263.45" width="16.84" height="6.09" rx="2.91" fill="#fc3" style="transform-origin:396.93px 266.495px;transform:rotate(-90deg)" className="animable"/>
<rect x="400.51" y="263.45" width="16.84" height="6.09" rx="2.91" fill="#fc3" style="transform-origin:408.93px 266.495px;transform:rotate(-90deg)" className="animable"/>
<rect x="412.52" y="263.45" width="16.84" height="6.09" rx="2.91" fill="#fc3" style="transform-origin:420.94px 266.495px;transform:rotate(-90deg)" className="animable"/>
<path d="M353.24,237.65l-.77,0-2.23,0-8.51.06-30.49.09.15-.05-25.82,23.37-.08.07H274.28l-39.93,0,.15-.05c-11,9.12-20.21,16.79-26.71,22.19l-7.57,6.24-2,1.63-.52.41c-.12.1-.18.14-.18.13l.16-.15c.12-.12.29-.26.5-.44l2-1.69,7.48-6.34,26.59-22.34.06-.05h.09l39.93,0h11.11l-.17.07,25.87-23.32.07-.06h.08l30.49.09,8.51.06,2.23,0Z" fill="#fc3" style="transform-origin:275.38px 264.581px" className="animable"/>
<path d="M303.25,215.2a.94.94,0,0,1,0,.27l0,.81c0,.76,0,1.8.05,3.11,0,2.74.05,6.62.09,11.37v.09l-.07.06-19.16,16.71-.07.06H281l-31.11-.07-9.42-.09-2.57-.05a4.77,4.77,0,0,1-.89-.05,6.22,6.22,0,0,1,.89,0l2.57-.05,9.42-.08,31.11-.08h3l-.17.07,19.24-16.62-.07.15c0-4.75.07-8.63.09-11.37,0-1.31,0-2.35.05-3.11q0-.48,0-.81A.94.94,0,0,1,303.25,215.2Z" fill="#fc3" style="transform-origin:270.2px 231.44px" className="animable"/>
<path d="M291,279.21s0-.1,0-.29,0-.5,0-.84c0-.79,0-1.86-.06-3.2,0-2.83,0-6.78-.09-11.56v-.09l.07-.06,15.59-14.71,6.23-5.84.07-.06h.1l20.6.09,6,.07,1.62,0a2.44,2.44,0,0,1,.56.05,3,3,0,0,1-.56,0l-1.62.05-6,.07-20.6.09L313,243l-6.22,5.85-15.66,14.64.07-.16c0,4.78-.07,8.73-.09,11.56,0,1.34,0,2.41-.06,3.2q0,.51,0,.84A1.11,1.11,0,0,1,291,279.21Z" fill="#fc3" style="transform-origin:316.27px 260.885px" className="animable"/>
<path d="M332.16,232.91l-.44,0-1.28,0-4.92.06-18,.08.13,0-23.8,21.58-.07.07h-20l-32.09,0,.15-.05L207.1,275.28l-7,5.84-1.88,1.53-.49.39-.17.12s0-.06.15-.15l.46-.42L200,281l7-5.94,24.59-20.8.07,0h.08l32.09,0h19.88l-.16.07c9-8.15,17.2-15.49,23.87-21.49l.05-.05h.08l18,.08,4.92,0,1.28,0Z" fill="#fc3" style="transform-origin:264.86px 257.975px" className="animable"/>
<path d="M608.27,249.74l-.27,0-.81,0-3.17,0-12,.07H592l-.05,0-37.61-37.46.19.08h-29l-.08-.08-10.64-10.66.17.07-23.32,0,.17-.09-6.65,9.66-.05.08H485l-15.27-.08-4.08,0-1.05,0a2.45,2.45,0,0,1-.36,0l.36,0,1.05,0,4.08,0,15.27-.08-.14.07,6.59-9.7.06-.09h.11l23.32,0h.1l.07.07L525.8,212l-.18-.07h29l.08.07,37.46,37.61-.11,0,12,.07,3.17,0,.81,0A.94.94,0,0,1,608.27,249.74Z" fill="#fc3" style="transform-origin:536.255px 225.67px" className="animable"/>
<path d="M608.27,254.59a1.39,1.39,0,0,1-.33,0l-1,0-3.84,0-14.3.08h-.07l0,0-37.45-37.32.18.08H544l-56.39-.08-17.09-.08-4.65-.05-1.21,0-.41,0a2.18,2.18,0,0,1,.41,0l1.21,0,4.65,0,17.09-.09L544,217h7.52l.08.07,37.32,37.45-.12-.05,14.3.08,3.84,0,1,0Z" fill="#fc3" style="transform-origin:536.26px 235.835px" className="animable"/>
<path d="M608.27,228.71l-.56,0-1.65,0-6.28.06-22.65.09H577l-.07-.06L557.1,208.49l.18.08H526l-.08-.07-9.74-9.34.15.06-26.62-.09-7.49-.06-2,0-.51,0h-.17s.06,0,.17,0l.51,0,2,0,7.49-.07,26.62-.09h.1l.06.06,9.78,9.31-.17-.07h31.34l.07.07,19.82,20.43-.15-.07,22.65.09,6.28.06,1.65,0Z" fill="#fc3" style="transform-origin:543.905px 213.885px" className="animable"/>
<path d="M608.27,261l-.39,0-1.14,0-4.44,0-16.46.09h-.07l0-.05L551.37,228.9l.17.07h-19l.19-.09L507,256.64l-.07.07h-.09l-27.82-.09-7.77-.06-2,0-.7,0,.7,0,2,0,7.77-.06,27.82-.09-.16.07,25.61-27.81.08-.08h19.24l.07.07L586,260.87l-.12-.05,16.46.08,4.44.05,1.14,0Z" fill="#fc3" style="transform-origin:538.41px 244.84px" className="animable"/>
<path d="M553.29,225.64a2.42,2.42,0,0,1-.5,0l-1.47,0-5.52.06-19.38.1.17-.08-12.74,13.52-9.22,9.75-.07.08h-.11l-23-.09-6.65-.08-1.78,0a3.63,3.63,0,0,1-.61,0,3.63,3.63,0,0,1,.61,0l1.78,0,6.65-.08,23-.09-.18.08,9.21-9.76,12.77-13.49.07-.08h.1l19.38.1,5.52.06,1.47,0A2.42,2.42,0,0,1,553.29,225.64Z" fill="#fc3" style="transform-origin:512.85px 237.275px" className="animable"/>
<path d="M304.14,215.37a.89.89,0,1,1-.89-.89A.88.88,0,0,1,304.14,215.37Z" fill="#fc3" style="transform-origin:303.25px 215.37px" className="animable"/>
<path d="M354.22,237.65a.89.89,0,1,1-.89-.89A.89.89,0,0,1,354.22,237.65Z" fill="#fc3" style="transform-origin:353.33px 237.65px" className="animable"/>
<path d="M237.94,247.42a.89.89,0,1,1-.89-.89A.89.89,0,0,1,237.94,247.42Z" fill="#fc3" style="transform-origin:237.05px 247.42px" className="animable"/>
<circle cx="464.74" cy="211.23" r=".89" fill="#fc3" style="transform-origin:464.74px 211.23px" className="animable"/>
<path d="M480.41,199a.89.89,0,1,1-.89-.89A.88.88,0,0,1,480.41,199Z" fill="#fc3" style="transform-origin:479.52px 199px" className="animable"/>
<path d="M553.65,225.64a.89.89,0,1,1-.89-.89A.89.89,0,0,1,553.65,225.64Z" fill="#fc3" style="transform-origin:552.76px 225.64px" className="animable"/>
<circle cx="474.09" cy="248.64" r=".89" fill="#fc3" style="transform-origin:474.09px 248.64px" className="animable"/>
<path d="M456.08,410c0,.15-22.22.26-49.62.26s-49.62-.11-49.62-.26,22.21-.26,49.62-.26S456.08,409.87,456.08,410Z" fill="#263238" style="transform-origin:406.46px 410px" className="animable"/>
</g>
<g style="transform-origin:151.415px 361.298px" className="animable">
<path d="M70.61,336.17l18.22,61.49a6.42,6.42,0,0,0,6.16,4.6l73.92.21a6.84,6.84,0,0,0,6.84-7.2h0a6.83,6.83,0,0,0-6.83-6.47H140.66L118,325.73H78.4A8.13,8.13,0,0,0,70.61,336.17Z" fill="#455a64" style="transform-origin:123.017px 364.1px" className="animable"/>
<path d="M133.14,393.85c0,.14-7.53.26-16.83.26s-16.83-.12-16.83-.26,7.54-.26,16.83-.26S133.14,393.71,133.14,393.85Z" fill="#263238" style="transform-origin:116.31px 393.85px" className="animable"/>
<path d="m76.05 327.68c0.13 0 5.16 14.68 11.24 32.88s10.88 33 10.74 33.05-5.17-14.67-11.24-32.88-10.88-33-10.74-33.05z" fill="#263238" style="transform-origin:87.04px 360.645px" className="animable"/>
<polygon points="130.07 456.9 125.57 456.79 125.57 402.26 130.07 402.26" fill="#455a64" style="transform-origin:127.82px 429.58px" className="animable"/>
<polygon points="106.85 456.65 148.78 456.65 129.79 450.05 125.28 450.05" fill="#455a64" style="transform-origin:127.815px 453.35px" className="animable"/>
<path d="m96.25 311.63 6.93 34.66-1.23 26 46.63-7.76-1.83-22.75v-18.82l11.43 22.16 8.91-17.2-16.3-29.53a27.56 27.56 0 0 0-10.66-6.91 22.28 22.28 0 0 0-6.69-1.28 26.7 26.7 0 0 1-16.14 0l-2.71 0.31h-0.21a20.63 20.63 0 0 0-18 19.39z" fill="#fc3" style="transform-origin:131.67px 331.245px" className="animable"/>
<path d="M114.55,290.51s-19.16.14-21.54,20.38l-.32,14.84,16.5-.14Z" fill="#fc3" style="transform-origin:103.62px 308.12px" className="animable"/>
<path d="M160.33,316.54c0,.14-15.08.26-33.68.26S93,316.68,93,316.54s15.08-.26,33.68-.26S160.33,316.4,160.33,316.54Z" fill="#fafafa" style="transform-origin:126.665px 316.54px" className="animable"/>
<path d="M160.33,319.75c0,.14-15.08.26-33.68.26S93,319.89,93,319.75s15.08-.26,33.68-.26S160.33,319.6,160.33,319.75Z" fill="#fafafa" style="transform-origin:126.665px 319.75px" className="animable"/>
<path d="M159.25,313.88c0,.14-14.84.26-33.14.26S93,314,93,313.88s14.84-.26,33.14-.26S159.25,313.74,159.25,313.88Z" fill="#fafafa" style="transform-origin:126.125px 313.88px" className="animable"/>
<path d="M146.47,345.1c-.15,0-.08-8.2.14-18.31s.52-18.32.66-18.31.08,8.2-.14,18.32S146.61,345.11,146.47,345.1Z" fill="#263238" style="transform-origin:146.868px 326.79px" className="animable"/>
<path d="M139.92,331.8s9.06.65,10.69,3.05,4.12,9.23,3.18,9.28a2.64,2.64,0,0,1-1.63-.52l-2.48-4.4s.4,4.25-1.09,4.34-8.84,1.55-8.84,1.55Z" fill="#b78876" style="transform-origin:146.873px 338.45px" className="animable"/>
<path d="m92.7 321.78v23.37a8.88 8.88 0 0 0 10.76 8.19l36.54-7.53-0.08-15-31.53 6.05-0.46-15.86z" fill="#fc3" style="transform-origin:116.35px 337.272px" className="animable"/>
<path d="M113.55,351.47a2.47,2.47,0,0,1,.48-.14l1.42-.32,5.37-1.13,19-3.89-.19.23c0-4.71,0-9.91,0-15.39l.3.25-6.42,1.23-25.12,4.78-.27.06v-.28c.24-6.95.44-12.75.58-16.85.08-2,.15-3.58.2-4.7,0-.52,0-.93.06-1.24a2,2,0,0,1,0-.42,1.91,1.91,0,0,1,0,.42v1.24c0,1.13,0,2.72-.07,4.71-.1,4.11-.23,9.9-.4,16.85l-.26-.22,25.1-4.86,6.43-1.23.3-.06v.32c0,5.48,0,10.68,0,15.39v.19l-.19,0-19.06,3.7-5.4,1-1.43.25A3,3,0,0,1,113.55,351.47Z" fill="#263238" style="transform-origin:124.09px 332.565px" className="animable"/>
<path d="M134.51,290.51s.07.11.15.34a7.32,7.32,0,0,1,.28,1,8.42,8.42,0,0,1-.17,3.93,10.3,10.3,0,0,1-3.17,4.9,9.8,9.8,0,0,1-6.65,2.51,9,9,0,0,1-6.58-2.67,9.28,9.28,0,0,1-2.45-5.29,8.38,8.38,0,0,1,.46-3.91,6.84,6.84,0,0,1,.47-1c.13-.21.2-.31.22-.3s-.22.46-.49,1.34a8.6,8.6,0,0,0-.29,3.79,9,9,0,0,0,2.43,5A8.65,8.65,0,0,0,125,302.7a9.48,9.48,0,0,0,6.33-2.35,10.29,10.29,0,0,0,3.14-4.64,8.86,8.86,0,0,0,.32-3.8C134.62,291,134.46,290.52,134.51,290.51Z" fill="#263238" style="transform-origin:125.478px 296.606px" className="animable"/>
<path d="M136.27,347.05a12.37,12.37,0,0,1,0-2.31c.06-1.42.12-3.37.14-5.54s0-4.12-.07-5.54a10.51,10.51,0,0,1,0-2.3,9.22,9.22,0,0,1,.34,2.28c.14,1.42.24,3.39.23,5.57s-.14,4.14-.29,5.56A9,9,0,0,1,136.27,347.05Z" fill="#fafafa" style="transform-origin:136.563px 339.205px" className="animable"/>
<path d="M134.39,347.43a10.4,10.4,0,0,1-.07-2.29c0-1.61,0-3.46.06-5.5v-5.51a10.78,10.78,0,0,1,.08-2.29,9.19,9.19,0,0,1,.28,2.28c.1,1.41.17,3.36.16,5.52s-.1,4.11-.21,5.52A9.42,9.42,0,0,1,134.39,347.43Z" fill="#fafafa" style="transform-origin:134.594px 339.635px" className="animable"/>
<path d="m158.64 449.73 3.27 9.39s17.82 18.82 22.57 17.33c3.11-1-1.34-5.91-8.91-20.82l-1.91-6.28z" fill="#fc3" style="transform-origin:172.061px 462.942px" className="animable"/>
<path d="M160.32,454.48l1.25,4.21S172,469,175,471.29s6.72,5.6,9.47,5,.34-3.08.34-3.08-.74,1.83-2.07,1.43-3.79-1.45-9.49-6.56-6.61-6.32-6.61-6.32.28-2.61-.83-4S162.6,454.26,160.32,454.48Z" fill="#fff" opacity=".4" style="transform-origin:173.054px 465.413px" className="animable"/>
<path d="M184.81,473.36a2.05,2.05,0,0,1-.76.89,2.89,2.89,0,0,1-3.05-.11,87.74,87.74,0,0,1-8.59-6.62c-3.22-2.75-6-5.44-7.91-7.43-.87-.91-1.62-1.71-2.28-2.39l-.61-.65c-.15-.15-.22-.22-.23-.21a1.16,1.16,0,0,0,.18.25c.19.21.38.44.58.68.51.6,1.26,1.44,2.21,2.45a102.3,102.3,0,0,0,7.88,7.52,77.4,77.4,0,0,0,8.67,6.58,3.77,3.77,0,0,0,1.85.47,2.58,2.58,0,0,0,1.36-.44,1.79,1.79,0,0,0,.6-.69A.92.92,0,0,0,184.81,473.36Z" fill="#263238" style="transform-origin:173.095px 465.815px" className="animable"/>
<path d="m181.91 467a2.73 2.73 0 0 0-1.31 0 6.93 6.93 0 0 0-2.86 1.34 5.39 5.39 0 0 0-1.92 2.49 2.81 2.81 0 0 0-0.21 1.29s0.1-0.49 0.4-1.21a5.76 5.76 0 0 1 1.91-2.35 7.57 7.57 0 0 1 2.72-1.36c0.77-0.2 1.27-0.13 1.27-0.2z" fill="#263238" style="transform-origin:178.756px 469.52px" className="animable"/>
<path d="m166.53 463.75a1.69 1.69 0 0 0 0.14-0.48 7.27 7.27 0 0 0 0.17-1.35 7.09 7.09 0 0 0-1.18-4.3 6.74 6.74 0 0 0-3.49-2.76 5.06 5.06 0 0 0-1.34-0.27 1.24 1.24 0 0 0-0.5 0 11.84 11.84 0 0 1 1.77 0.44 6.88 6.88 0 0 1 3.32 2.73 7.37 7.37 0 0 1 1.22 4.14c-0.01 1.15-0.16 1.84-0.11 1.85z" fill="#263238" style="transform-origin:163.59px 459.157px" className="animable"/>
<path d="M159.81,451.26c-.07,0,.42,1.34.89,3a10.16,10.16,0,0,0,1.13,2.94c.06,0-.4-1.34-.86-3A10.72,10.72,0,0,0,159.81,451.26Z" fill="#263238" style="transform-origin:160.819px 454.23px" className="animable"/>
<path d="M176,457a3.6,3.6,0,0,0-2,.23,3.51,3.51,0,0,0-1.73,1.05c0,.06.79-.44,1.82-.78S176,457,176,457Z" fill="#263238" style="transform-origin:174.135px 457.617px" className="animable"/>
<path d="m176.48 458.57a3.2 3.2 0 0 0-3.12 1.09c0.06 0.06 0.65-0.41 1.5-0.71s1.61-0.29 1.62-0.38z" fill="#263238" style="transform-origin:174.92px 459.084px" className="animable"/>
<path d="m177.94 460.51a2.58 2.58 0 0 0-3.17 1.07 7.72 7.72 0 0 1 1.48-0.85 7.15 7.15 0 0 1 1.69-0.22z" fill="#263238" style="transform-origin:176.355px 460.953px" className="animable"/>
<path d="M174.83,456.38c0-.05-.74-.13-1.91-.44a16.52,16.52,0,0,1-2-.72c-.36-.17-.74-.35-1.11-.56s-.73-.52-.76-.9.42-.62.79-.57a2.34,2.34,0,0,1,1,.55c.63.49,1.18,1,1.63,1.37.89.81,1.4,1.37,1.43,1.34s-.09-.17-.31-.43-.55-.63-1-1.06a20.91,20.91,0,0,0-1.61-1.42,2.44,2.44,0,0,0-1.17-.62.92.92,0,0,0-1.11.86,1.61,1.61,0,0,0,.91,1.12c.39.21.77.4,1.14.56a12.42,12.42,0,0,0,2.05.67,10.5,10.5,0,0,0,1.43.24A2.15,2.15,0,0,0,174.83,456.38Z" fill="#263238" style="transform-origin:171.765px 454.676px" className="animable"/>
<path d="M174,456.26s0-.69.11-1.78a7.43,7.43,0,0,1,.34-1.88,4,4,0,0,1,.5-1c.21-.3.55-.57.86-.43s.4.57.39.93a4.29,4.29,0,0,1-.2,1.09,6.21,6.21,0,0,1-.86,1.69c-.65.88-1.18,1.33-1.14,1.36s.15-.08.39-.28a8,8,0,0,0,.91-1,6,6,0,0,0,1-1.73,4.27,4.27,0,0,0,.23-1.16,1.21,1.21,0,0,0-.56-1.2,1.06,1.06,0,0,0-1.2.52,4.18,4.18,0,0,0-.51,1.07,6.76,6.76,0,0,0-.31,2c0,.56,0,1,0,1.31A1.75,1.75,0,0,0,174,456.26Z" fill="#263238" style="transform-origin:175.245px 453.548px" className="animable"/>
<path d="m203.28 452.2-0.68-6.55-17.92 0.33v10.56l1.14 0.08c5.08 0.31 25.82 1.22 29.22 0.23 3.84-1.1-11.76-4.65-11.76-4.65z" fill="#fc3" style="transform-origin:200.164px 451.475px" className="animable"/>
<g opacity=".5" style="transform-origin:188.055px 453.78px" className="animable">
<path d="m191.4 456.44a6.32 6.32 0 0 0-2.2-4 5.46 5.46 0 0 0-4.49-1.24v5z" fill="#fff" style="transform-origin:188.055px 453.78px" className="animable"/>
</g>
<g opacity=".5" style="transform-origin:200.21px 455.731px" className="animable">
<path d="m210.9 454.2s5.47 1.59 4.78 2.47-21.69 0.73-31-0.13v-0.4l24.49 0.37s0.66-2.27 1.73-2.31z" fill="#fff" style="transform-origin:200.21px 455.731px" className="animable"/>
</g>
<path d="M184.48,456.13l.31,0,.91.06,3.34.17c2.83.12,6.73.23,11,.26s8.21,0,11-.09l3.34-.12.91,0,.32,0a1.14,1.14,0,0,0-.32,0h-.91l-3.35,0c-2.82,0-6.72.07-11,0s-8.21-.12-11-.2l-3.35-.09-.9,0Z" fill="#263238" style="transform-origin:200.045px 456.376px" className="animable"/>
<path d="m209.25 456.79a7.7 7.7 0 0 1 0.64-1.56 7.19 7.19 0 0 1 1.11-1.23 2.43 2.43 0 0 0-1.33 1.13 2.39 2.39 0 0 0-0.42 1.66z" fill="#263238" style="transform-origin:210.117px 455.395px" className="animable"/>
<path d="M203.84,454.06s.32-.28.59-.69.45-.77.4-.8-.32.27-.59.68S203.79,454,203.84,454.06Z" fill="#263238" style="transform-origin:204.335px 453.314px" className="animable"/>
<path d="M202.36,453.28s.33-.15.65-.42.54-.54.5-.59-.33.15-.65.42S202.32,453.23,202.36,453.28Z" fill="#263238" style="transform-origin:202.935px 452.771px" className="animable"/>
<path d="m201.43 451.57a2.21 2.21 0 0 0 1 0.13 2.12 2.12 0 0 0 1-0.1 2.3 2.3 0 0 0-1-0.12 2.2 2.2 0 0 0-1 0.09z" fill="#263238" style="transform-origin:202.43px 451.589px" className="animable"/>
<path d="m201.12 450.37a2.73 2.73 0 0 0 2.17 0.17 6.41 6.41 0 0 0-1.09-0.08 6.31 6.31 0 0 0-1.08-0.09z" fill="#263238" style="transform-origin:202.205px 450.529px" className="animable"/>
<path d="M204.48,452.49a3.34,3.34,0,0,0,1.18,0,7.08,7.08,0,0,0,1.26-.26,3.5,3.5,0,0,0,.72-.29.62.62,0,0,0,.3-.35.47.47,0,0,0-.18-.47,2.2,2.2,0,0,0-2.68.6,2,2,0,0,0-.39.77.77.77,0,0,0,0,.32,3.29,3.29,0,0,1,.55-1,2.09,2.09,0,0,1,1-.63,1.87,1.87,0,0,1,1.41.1c.19.14.11.35-.1.47a3,3,0,0,1-.66.28,9.74,9.74,0,0,1-1.22.3C204.93,452.46,204.48,452.46,204.48,452.49Z" fill="#263238" style="transform-origin:206.215px 451.854px" className="animable"/>
<path d="M204.78,452.55a1.08,1.08,0,0,0,.15-.8,1.87,1.87,0,0,0-.32-.85,1.18,1.18,0,0,0-1-.6.47.47,0,0,0-.37.53,1.16,1.16,0,0,0,.2.52,3.57,3.57,0,0,0,.55.71,1.85,1.85,0,0,0,.67.47s-.23-.21-.55-.58a3.71,3.71,0,0,1-.49-.7c-.16-.24-.27-.68,0-.73s.59.26.77.49a2,2,0,0,1,.33.76A3.71,3.71,0,0,1,204.78,452.55Z" fill="#263238" style="transform-origin:204.093px 451.425px" className="animable"/>
<path d="M184.89,451.2s.52-.05,1.36.05a6.08,6.08,0,0,1,2.95,1.22,5.87,5.87,0,0,1,1.84,2.58c.27.77.29,1.29.34,1.29a1.12,1.12,0,0,0,0-.36,5,5,0,0,0-.19-1,5.64,5.64,0,0,0-1.85-2.7,5.81,5.81,0,0,0-3.08-1.2,5.24,5.24,0,0,0-1,0A1.07,1.07,0,0,0,184.89,451.2Z" fill="#263238" style="transform-origin:188.142px 453.698px" className="animable"/>
<path d="m193.73 454.7a15.46 15.46 0 0 0 5.37 0.09c0-0.06-1.2 0-2.68 0s-2.68-0.15-2.69-0.09z" fill="#263238" style="transform-origin:196.415px 454.834px" className="animable"/>
<path d="M190.13,454.67c0,.05.09.25.21.52s.19.51.25.51.1-.28,0-.6S190.17,454.63,190.13,454.67Z" fill="#263238" style="transform-origin:190.39px 455.182px" className="animable"/>
<path d="M188.78,453c-.05,0,.07.23.26.42s.38.31.42.26-.07-.23-.26-.42S188.82,453,188.78,453Z" fill="#263238" style="transform-origin:189.118px 453.346px" className="animable"/>
<path d="M186.84,452.24c0,.06.26.06.53.15s.46.24.51.2-.11-.29-.44-.4S186.82,452.18,186.84,452.24Z" fill="#263238" style="transform-origin:187.364px 452.369px" className="animable"/>
<path d="M185.46,451.87c0,.05.08.15.23.21s.3.06.32,0-.08-.15-.23-.21S185.48,451.81,185.46,451.87Z" fill="#263238" style="transform-origin:185.736px 451.975px" className="animable"/>
<polygon points="184.7 449.5 203 449.55 202.6 445.65 184.68 445.98" opacity=".3" style="transform-origin:193.84px 447.6px" className="animable"/>
<path d="m185.18 361.19c-17.73 1.81-41.18 4.25-41.18 4.25l3.2 28.86s34.54-9.13 34.29-8.39 1.6 61.41 1.6 61.41h20.8l0.39-68.71a17.28 17.28 0 0 0-19.1-17.42z" fill="#263238" style="transform-origin:174.141px 404.207px" className="animable"/>
<path d="M101.52,372.84v9c0,6.09,6.94,12.55,13,12.55h4.71c3.71,0,9.53-2.7,12.52-4.89l1.81-1.32,21.65,67.09S180,450.78,180,450s-16.78-54.95-24.53-80.09c-3.16-10.27-14.16-16.24-24.32-12.75l-1,.38C119,362,101.52,372.84,101.52,372.84Z" fill="#263238" style="transform-origin:140.76px 405.715px" className="animable"/>
<path d="M180,450a.86.86,0,0,1-.11-.24l-.27-.72c-.24-.63-.58-1.57-1-2.78-.83-2.43-2-6-3.35-10.33-2.76-8.74-6.47-20.85-10.5-34.25-2-6.7-3.91-13.08-5.65-18.89l-2.45-8.25-1.12-3.73a34.75,34.75,0,0,0-1.12-3.4,14,14,0,0,0-3.5-5,28.67,28.67,0,0,0-3.67-2.86c-1.06-.71-1.9-1.23-2.48-1.58l-.65-.41q-.22-.14-.21-.15l.24.11.67.36c.6.32,1.46.81,2.54,1.51a27.39,27.39,0,0,1,3.76,2.8,14.25,14.25,0,0,1,3.64,5,34.24,34.24,0,0,1,1.17,3.42c.36,1.2.75,2.44,1.14,3.73.78,2.58,1.62,5.33,2.5,8.23,1.75,5.81,3.67,12.19,5.69,18.88,4,13.37,7.69,25.48,10.35,34.29l3.2,10.37c.37,1.19.67,2.14.89,2.82l.22.73A.82.82,0,0,1,180,450Z" fill="#455a64" style="transform-origin:161.96px 403.705px" className="animable"/>
<path d="m185.25 377.26c0.13 0.09-1.05 1.86-2 4.26s-1.43 4.48-1.58 4.45a11.32 11.32 0 0 1 1.1-4.65 11.06 11.06 0 0 1 2.48-4.06z" fill="#455a64" style="transform-origin:183.465px 381.615px" className="animable"/>
<path d="M189.22,380.05c.06.14-1.73.92-3.59,2.4s-3.06,3-3.18,2.92a11.31,11.31,0,0,1,6.77-5.32Z" fill="#455a64" style="transform-origin:185.836px 382.712px" className="animable"/>
<path d="m155.47 455.22c-0.13 0-6-17.91-13.06-40.09s-12.71-40.22-12.57-40.26 6 17.9 13.06 40.1 12.71 40.21 12.57 40.25z" fill="#455a64" style="transform-origin:142.655px 415.045px" className="animable"/>
<path d="M116.47,265.63c-.67-1.6-2.13-4.28-2.48-6a8.8,8.8,0,0,1,.31-5.11,5.37,5.37,0,0,1,3.74-3.3,20.65,20.65,0,0,0,3.17-.4,9.31,9.31,0,0,0,2.84-2.34,9.06,9.06,0,0,1,5.19-2.36,5.29,5.29,0,0,1,3,.43,3,3,0,0,1,1.71,2.35,14.45,14.45,0,0,1,3.63-.87,4.83,4.83,0,0,1,3.5,1,2.94,2.94,0,0,1,.81,3.39,2.39,2.39,0,0,1,3.08.87,3.06,3.06,0,0,1-.2,3.33,5.75,5.75,0,0,1-3.43,2,8.42,8.42,0,0,1-3.64-.11" fill="#263238" style="transform-origin:129.559px 255.846px" className="animable"/>
<path d="M128.83,250.75a11.74,11.74,0,0,1,11.74,11.52c.12,5.83.16,12-.13,13.84-1.17,7.33-6.79,8.27-6.79,8.27s-.09,4.59-.1,8.95a8,8,0,0,1-8.08,7.7h0a7.61,7.61,0,0,1-8-7.25l-.34-31.16a11.74,11.74,0,0,1,11.74-11.87Z" fill="#b78876" style="transform-origin:128.895px 275.895px" className="animable"/>
<path d="M139,265.4a1,1,0,0,1-.91,1,.9.9,0,0,1-1-.85.94.94,0,0,1,.9-.95A.91.91,0,0,1,139,265.4Z" fill="#263238" style="transform-origin:138.045px 265.5px" className="animable"/>
<path d="M139.23,264.71c-.12.12-.83-.41-1.84-.4s-1.75.51-1.86.38.06-.27.38-.51a2.67,2.67,0,0,1,1.5-.46,2.48,2.48,0,0,1,1.46.47C139.18,264.43,139.29,264.65,139.23,264.71Z" fill="#263238" style="transform-origin:137.371px 264.224px" className="animable"/>
<path d="M128.9,265.58a1,1,0,0,1-.91.95.9.9,0,0,1-1-.85.94.94,0,0,1,.91-.95A.9.9,0,0,1,128.9,265.58Z" fill="#263238" style="transform-origin:127.945px 265.63px" className="animable"/>
<path d="M129.28,264.9c-.11.12-.83-.41-1.84-.4s-1.75.5-1.86.38.06-.28.39-.51a2.53,2.53,0,0,1,1.49-.46,2.41,2.41,0,0,1,1.46.47C129.23,264.62,129.34,264.84,129.28,264.9Z" fill="#263238" style="transform-origin:127.421px 264.414px" className="animable"/>
<path d="M133,272.4a7.25,7.25,0,0,1,1.64-.29c.26,0,.5-.08.55-.26a1.29,1.29,0,0,0-.18-.76l-.76-2a34.69,34.69,0,0,1-1.72-5.15,33,33,0,0,1,2.13,5c.25.69.5,1.35.73,2a1.48,1.48,0,0,1,.14,1,.67.67,0,0,1-.43.38,1.92,1.92,0,0,1-.44.06A6.06,6.06,0,0,1,133,272.4Z" fill="#263238" style="transform-origin:134.046px 268.194px" className="animable"/>
<path d="m133.65 284.38a18.63 18.63 0 0 1-9.82-2.62s2.39 5 9.73 4.35z" fill="#aa6550" style="transform-origin:128.74px 283.964px" className="animable"/>
<path d="M130,273.1c.16,0,.16,1.09,1.1,1.87s2.11.66,2.12.81-.26.22-.75.23a2.69,2.69,0,0,1-1.77-.62,2.38,2.38,0,0,1-.86-1.56C129.78,273.37,129.9,273.1,130,273.1Z" fill="#263238" style="transform-origin:131.522px 274.555px" className="animable"/>
<path d="M129.54,260.93c-.1.28-1.11.15-2.29.29s-2.15.47-2.31.22.1-.38.49-.64a4,4,0,0,1,3.5-.39C129.37,260.59,129.59,260.8,129.54,260.93Z" fill="#263238" style="transform-origin:127.22px 260.853px" className="animable"/>
<path d="m138.86 261.78c-0.18 0.23-0.88 0-1.72 0s-1.54 0.15-1.71-0.09 0-0.34 0.35-0.56a2.48 2.48 0 0 1 2.76 0.08c0.3 0.22 0.4 0.46 0.32 0.57z" fill="#263238" style="transform-origin:137.125px 261.316px" className="animable"/>
<path d="m118 265.19c-0.1-0.05-4.24-1.45-4.28 2.83s4.26 3.44 4.27 3.31 0.01-6.14 0.01-6.14z" fill="#b78876" style="transform-origin:115.86px 268.207px" className="animable"/>
<path d="M116.72,269.7s-.08.05-.2.11a.76.76,0,0,1-.56,0,1.86,1.86,0,0,1-.84-1.66,2.54,2.54,0,0,1,.22-1.06.89.89,0,0,1,.57-.57.38.38,0,0,1,.44.21c.05.12,0,.2.05.21s.09-.07.06-.25a.55.55,0,0,0-.17-.27.6.6,0,0,0-.41-.11,1,1,0,0,0-.78.66,2.52,2.52,0,0,0-.28,1.19,1.93,1.93,0,0,0,1.07,1.85.79.79,0,0,0,.69-.1C116.71,269.8,116.73,269.71,116.72,269.7Z" fill="#aa6550" style="transform-origin:115.769px 268.178px" className="animable"/>
<path d="M141.21,257.23a15.56,15.56,0,0,1-9.66-.49c-3.43-1.3-7.32-1.71-8.09-1s-.61,4.12-3.75,5.43c0,0,.87,6.4-1.71,6.43s-2-10.08-2-10.08l5.24-5.12,6.71-2.34,7.11,1.14,6.14,1.23Z" fill="#263238" style="transform-origin:128.577px 258.83px" className="animable"/>
<polygon points="128.9 350.56 199.78 351.24 213 313.88 161.44 314.23 149.47 347.83 128.9 348.13" fill="#e0e0e0" style="transform-origin:170.95px 332.56px" className="animable"/>
<circle cx="183.04" cy="332.94" r="2.87" fill="#fff" style="transform-origin:183.04px 332.94px;transform:rotate(-72.62deg)" className="animable"/>
<polygon points="53.25 350.79 53.25 354.88 70.27 354.88 70.27 456.79 73.67 456.79 73.67 354.88 227.84 354.88 227.84 456.79 231.17 456.79 231.17 354.88 249.58 354.88 249.58 350.79" fill="#263238" style="transform-origin:151.415px 403.79px" className="animable"/>
</g>
<g style="transform-origin:640.332px 386.333px" className="animable">
<path d="M652.92,374.7c4.36-2.26,9.5-2.55,14.35-1.75,2.6.43,5.32,1.21,7.09,3.17s2.11,5.4.07,7.08a6.78,6.78,0,0,1-4.47,1.13c-3.79,0-8-.71-11,1.57-1.73,1.31-2.88,3.47-4.95,4.11a4.89,4.89,0,0,1-5.38-2.39,8.38,8.38,0,0,1-.61-6.17A9.42,9.42,0,0,1,652.92,374.7Z" fill="#fc3" style="transform-origin:661.76px 381.341px" className="animable"/>
<path d="M642.91,355.39c2.67,3.81,7.86,2.55,10.27.22s3.42-5.7,4.35-8.92c2.11-7.35,4.24-15.06,2.67-22.54a12.54,12.54,0,0,0-2.88-6.13,6.53,6.53,0,0,0-6.2-2.06c-2.62.69-4.24,3.25-5.42,5.69a53.8,53.8,0,0,0-5.31,23.06c0,3.71.43,7.61,2.52,10.68" fill="#fc3" style="transform-origin:650.566px 336.822px" className="animable"/>
<path d="M635.58,360.86c2.9-3.44,3.45-8.46,2.16-12.77a24.57,24.57,0,0,0-7.56-11,40.79,40.79,0,0,0-13.54-8,14.39,14.39,0,0,0-6.09-1,6.36,6.36,0,0,0-5.11,3.09c-1.43,2.72-.06,6,1.41,8.7a104.74,104.74,0,0,0,8.9,13.55c2.66,3.43,5.72,6.82,9.78,8.38s8.28,1.37,10.44-1.45" fill="#fc3" style="transform-origin:621.617px 345.428px" className="animable"/>
<path d="M642.73,412.91a8.51,8.51,0,0,0,.24-1.74c.13-1.26.28-2.84.46-4.72a66.52,66.52,0,0,1,1.07-6.94,53.37,53.37,0,0,1,2.52-8.19,30,30,0,0,1,4.18-7.4,15.58,15.58,0,0,1,5.28-4.4,15,15,0,0,1,4.45-1.38,8.83,8.83,0,0,0,1.73-.25,8,8,0,0,0-1.76,0,13.61,13.61,0,0,0-4.64,1.21,15.6,15.6,0,0,0-5.57,4.43,29.26,29.26,0,0,0-4.33,7.56,49.87,49.87,0,0,0-2.51,8.32,59.94,59.94,0,0,0-.92,7c-.15,2-.21,3.63-.23,4.76A8,8,0,0,0,642.73,412.91Z" fill="#263238" style="transform-origin:652.663px 395.376px" className="animable"/>
<path d="M643.06,409.27a3.63,3.63,0,0,0,0-.81v-2.29c0-2,0-4.89.1-8.45.18-7.13.79-14.81,2-25.63,1.12-10.17,2.63-22,4.22-29.71.34-1.75.68-3.33,1-4.71s.57-2.57.82-3.53l.54-2.24a4.19,4.19,0,0,0,.14-.79,3.44,3.44,0,0,0-.28.75c-.17.58-.4,1.31-.67,2.2s-.6,2.14-.94,3.52-.74,2.95-1.12,4.69a260.7,260.7,0,0,0-4.43,27.57c-1.19,10.85-1.73,20.72-1.77,27.87-.05,3.57,0,6.47.12,8.46.06.94.1,1.7.14,2.3A3.07,3.07,0,0,0,643.06,409.27Z" fill="#263238" style="transform-origin:647.265px 370.19px" className="animable"/>
<path d="M643.11,390.23a15.21,15.21,0,0,0,0-2.4,65.47,65.47,0,0,0-.74-6.51,85.75,85.75,0,0,0-2.11-9.48,77.67,77.67,0,0,0-4-11.22,59.74,59.74,0,0,0-11.64-18.13,30.54,30.54,0,0,0-2.74-2.54c-.42-.36-.79-.71-1.17-1l-1.06-.73a16,16,0,0,0-2-1.3c-.12.16,2.86,1.91,6.63,5.91a63.15,63.15,0,0,1,11.35,18.07,87.88,87.88,0,0,1,4,11.11c1,3.48,1.73,6.69,2.26,9.39s.78,4.91.95,6.44A14.53,14.53,0,0,0,643.11,390.23Z" fill="#263238" style="transform-origin:630.402px 363.575px" className="animable"/>
<polygon points="624.7 423.82 626.61 449.95 660.19 449.95 662.1 423.82" fill="#263238" style="transform-origin:643.4px 436.885px" className="animable"/>
<rect x="621.46" y="413.51" width="44.65" height="10.3" fill="#263238" style="transform-origin:643.785px 418.66px" className="animable"/>
<polygon points="621.46 448.95 621.46 451.81 623.56 451.81 665.37 451.81 665.37 448.95" fill="#455a64" style="transform-origin:643.415px 450.38px" className="animable"/>
<polygon points="625.61 456.84 623.56 451.81 663.77 451.81 661.37 456.84" fill="#455a64" style="transform-origin:643.665px 454.325px" className="animable"/>
<path d="M661.47,432.36a.9.9,0,0,1-.15.24l-.5.66-2,2.51-.09.11-.08-.12-4.81-6.64h.28l-4.73,6.7-.15.21-.17-.2-5.61-6.68h.33l-.31.38-5,6.3-.17.2-.15-.21-4.74-6.7h.28l-5.83,6.64-.11.12-.07-.13c-.77-1.29-1.39-2.32-1.83-3.07-.19-.33-.34-.6-.47-.81a1.21,1.21,0,0,1-.14-.3,2.34,2.34,0,0,1,.19.26l.52.79,1.92,3h-.18l5.73-6.73.15-.17.13.19,4.78,6.66h-.33l5-6.3.31-.38.16-.2.16.19,5.6,6.69h-.32c1.73-2.4,3.34-4.65,4.78-6.66l.14-.2.14.2,4.7,6.72h-.17l2-2.44.54-.63A1.37,1.37,0,0,1,661.47,432.36Z" fill="#e0e0e0" style="transform-origin:643.36px 432.36px" className="animable"/>
<path d="M662.56,423.64c0,.12-8.41.21-18.79.21s-18.79-.09-18.79-.21,8.41-.21,18.79-.21S662.56,423.53,662.56,423.64Z" fill="#455a64" style="transform-origin:643.77px 423.64px" className="animable"/>
<path d="M664.26,452.09c0,.12-9.14.21-20.42.21s-20.42-.09-20.42-.21,9.14-.21,20.42-.21S664.26,452,664.26,452.09Z" fill="#263238" style="transform-origin:643.84px 452.09px" className="animable"/>
</g>
</svg>
